<?xml version="1.0" encoding="UTF-8" standalone="no"?>
<!-- Created with Inkscape (http://www.inkscape.org/) -->

<svg
   width="265.00006"
   height="265"
   viewBox="0 0 70.114596 70.11458"
   version="1.1"
   id="svg1"
   inkscape:version="1.4.3 (0d15f75042, 2025-12-25)"
   sodipodi:docname="E072.svg"
   xmlns:inkscape="http://www.inkscape.org/namespaces/inkscape"
   xmlns:sodipodi="http://sodipodi.sourceforge.net/DTD/sodipodi-0.dtd"
   xmlns="http://www.w3.org/2000/svg"
   xmlns:svg="http://www.w3.org/2000/svg">
  <sodipodi:namedview
     id="namedview1"
     pagecolor="#ffffff"
     bordercolor="#000000"
     borderopacity="0.25"
     inkscape:showpageshadow="2"
     inkscape:pageopacity="0.0"
     inkscape:pagecheckerboard="0"
     inkscape:deskcolor="#d1d1d1"
     inkscape:document-units="px"
     inkscape:zoom="0.71891835"
     inkscape:cx="495.88385"
     inkscape:cy="598.12077"
     inkscape:window-width="2560"
     inkscape:window-height="1379"
     inkscape:window-x="0"
     inkscape:window-y="0"
     inkscape:window-maximized="0"
     inkscape:current-layer="layer1" />
  <defs
     id="defs1" />
  <g
     inkscape:label="Ebene 1"
     inkscape:groupmode="layer"
     id="layer1"
     transform="translate(-160.60208,-70.114563)">
    <rect
       width="70.114586"
       height="70.114586"
       style="fill:#ffffff;stroke-width:0.529167"
       id="rect1662"
       x="160.6021"
       y="70.114563"
       inkscape:label="1" />
    <rect
       x="162.35497"
       y="71.867432"
       width="66.608841"
       height="66.608841"
       style="fill:#237f52;stroke-width:0.529167"
       id="rect1664"
       inkscape:label="1" />
    <path
       id="path5"
       d="m 218.20024,79.593649 v 12.096773 h -2.58039 c -0.8469,-2.32175 -3.08214,-3.99483 -5.6845,-3.99483 -3.32258,0 -6.0501,2.726852 -6.0501,6.049415 0,3.322563 2.72752,6.047346 6.0501,6.047346 2.60312,0 4.83886,-1.672694 5.68519,-3.994817 h 2.5797 v 34.391144 h 3.04523 V 79.593649 Z m -23.90943,8.533934 c -5.96615,-0.06956 -7.03551,2.846948 -9.13641,7.175637 l -5.77557,11.95916 c -0.39343,0.84186 0.31321,0.92481 0.64698,0.68943 l 4.60483,-3.4437 1.70884,0.70723 0.86196,-0.15062 2.34828,-9.912796 c 1.30515,-4.794306 10.48014,-3.750411 9.95525,2.025819 -0.36282,2.550419 -0.52137,6.541177 -2.43455,8.920767 l 0.86196,1.4658 c 0,0 2.07619,-1.9954 2.909,-4.13792 3.41295,-8.780318 -0.58439,-15.229251 -6.55057,-15.298807 z m 15.64454,2.615988 c 1.67576,0 3.00142,1.325668 3.00142,3.001436 0,1.675768 -1.32566,3.002111 -3.00142,3.002111 -1.67577,0 -3.00143,-1.326343 -3.00143,-3.002111 0,-1.675768 1.32566,-3.001436 3.00143,-3.001436 z m -16.16212,11.929029 -4.89101,3.8141 c -0.57772,0.42788 -0.86215,0.50675 -1.48702,0.30123 l -1.5733,-0.34437 c -0.89747,-0.23472 -1.34438,-0.26103 -1.982,0.30125 l -5.10736,4.91359 c -0.59349,0.50552 -1.00998,0.88793 -0.2581,1.80949 l 0.40119,0.44501 c -1.72238,1.94144 -2.91118,3.68214 -3.55187,5.26551 -0.80348,1.98561 -0.70758,3.82277 0.36764,5.22169 0.65809,0.85622 0.83269,1.5307 0.76816,2.07033 -0.0645,0.53965 -0.37553,1.02363 -0.94959,1.47264 -1.1481,0.89805 -3.31181,1.48224 -5.43666,1.48224 v 1.32476 c 2.35158,0 4.71864,-0.56282 6.25205,-1.76225 0.76672,-0.59971 1.33411,-1.40108 1.44869,-2.35924 0.1146,-0.95814 -0.23274,-1.99524 -1.03242,-3.03566 -0.7761,-1.00976 -0.88237,-2.20387 -0.18896,-3.91747 0.54204,-1.33955 1.61282,-2.94162 3.2164,-4.77051 l 0.27796,0.30876 c 1.05079,1.01739 1.93524,0.96819 3.25406,-0.21566 l 11.8729,-11.42035 z"
       style="fill:#ffffff;fill-opacity:1;stroke-width:1"
       inkscape:label="1"
       sodipodi:nodetypes="cccsssccccccscccccccccccsssssscccccccccsscccscssccccc" />
  </g>
</svg>
