<?xml version="1.0" encoding="UTF-8" standalone="no"?>
<!-- Created with Inkscape (http://www.inkscape.org/) -->

<svg
   width="265"
   height="265.00003"
   viewBox="0 0 70.11458 70.114589"
   version="1.1"
   id="svg1"
   inkscape:version="1.4.3 (0d15f75042, 2025-12-25)"
   sodipodi:docname="E076.svg"
   xmlns:inkscape="http://www.inkscape.org/namespaces/inkscape"
   xmlns:sodipodi="http://sodipodi.sourceforge.net/DTD/sodipodi-0.dtd"
   xmlns="http://www.w3.org/2000/svg"
   xmlns:svg="http://www.w3.org/2000/svg">
  <sodipodi:namedview
     id="namedview1"
     pagecolor="#ffffff"
     bordercolor="#000000"
     borderopacity="0.25"
     inkscape:showpageshadow="2"
     inkscape:pageopacity="0.0"
     inkscape:pagecheckerboard="0"
     inkscape:deskcolor="#d1d1d1"
     inkscape:document-units="px"
     inkscape:zoom="2.8756734"
     inkscape:cx="129.70875"
     inkscape:cy="182.39206"
     inkscape:window-width="1274"
     inkscape:window-height="1400"
     inkscape:window-x="0"
     inkscape:window-y="0"
     inkscape:window-maximized="0"
     inkscape:current-layer="layer1" />
  <defs
     id="defs1" />
  <g
     inkscape:label="Ebene 1"
     inkscape:groupmode="layer"
     id="layer1"
     transform="translate(-149.48956,-113.77084)">
    <rect
       width="70.114586"
       height="70.114586"
       style="fill:#ffffff;stroke-width:0.529167"
       id="rect1662-3"
       x="149.48956"
       y="113.77085"
       inkscape:label="1" />
    <rect
       x="151.24243"
       y="115.52372"
       width="66.608841"
       height="66.608841"
       style="fill:#237f52;stroke-width:0.529167"
       id="rect1664-4"
       inkscape:label="1" />
    <path
       id="path1"
       style="fill:#ffffff;fill-opacity:1;stroke-width:0.200001"
       d="m 163.58303,123.80917 c -0.30024,-0.003 -0.49999,0.20141 -0.49999,0.61144 v 16.44399 c 0,0.65603 0.51176,0.78755 1.12735,0.38009 0,0 3.21618,-2.0816 6.31034,-3.43327 3.09416,-1.35165 7.4347,-1.61291 7.4347,-1.61291 v -7.11181 c 0,0 -4.34054,-0.26076 -7.4347,-1.61242 -3.09416,-1.35166 -6.31034,-3.43327 -6.31034,-3.43327 -0.23084,-0.15279 -0.44721,-0.2298 -0.62736,-0.23184 z m 15.96342,5.38847 v 6.88993 h 1.89748 l -1.82335,8.4909 h 2.76761 l 2.6711,-8.4909 h 1.59649 l 1.62833,-1.01889 v -4.85215 l -1.62833,-1.01889 z m -18.07184,1.04227 -1.95021,0.50944 v 3.78651 l 1.95021,0.50944 z m 30.59252,13.61121 -3.97904,1.06665 c -0.12421,4.44005 -0.58925,7.09399 -2.78702,10.96848 v 17.96088 h 11.65006 v -1.53728 h -10.84311 v -2.17012 h 10.84311 v -2.1144 h -10.84311 v -2.1701 h 3.24075 v -20.2519 l 1.94176,-0.56367 v 20.81557 h 5.6606 v -11.22916 z m 10.73614,0 -4.884,10.77495 v 11.22916 h 5.6606 v -20.81557 l 1.94176,0.56367 v 20.2519 h 3.24074 v 2.1701 h -10.8431 v 2.1144 h 10.8431 v 2.17012 h -10.8431 v 1.53728 h 11.65005 v -17.96088 c -2.19777,-3.87449 -2.66281,-6.52843 -2.78702,-10.96848 z m -9.39089,1.30446 4.02282,8.45856 4.02282,-8.45856 a 5.547212,2.4691181 0 0 1 -4.02282,0.77361 5.547212,2.4691181 0 0 1 -4.02282,-0.77361 z"
       inkscape:label="1" />
  </g>
</svg>
